<?xml version="1.0" standalone="no"?>
<!DOCTYPE svg PUBLIC "-//W3C//DTD SVG 20010904//EN"
 "http://www.w3.org/TR/2001/REC-SVG-20010904/DTD/svg10.dtd">
<svg version="1.0" xmlns="http://www.w3.org/2000/svg"
 width="1374.000000pt" height="710.000000pt" viewBox="0 0 1374.000000 710.000000"
 preserveAspectRatio="xMidYMid meet">

<g transform="translate(0.000000,710.000000) scale(0.100000,-0.100000)"
fill="#000000" stroke="none">
<path d="M790 6971 c0 -22 3 -42 8 -44 4 -3 7 15 7 39 0 24 -3 44 -7 44 -5 0
-8 -18 -8 -39z"/>
<path d="M520 6958 c0 -35 2 -38 28 -37 16 1 20 3 10 6 -22 5 -24 23 -3 23 8
0 15 5 15 11 0 6 -9 9 -19 6 -13 -3 -18 -1 -14 9 2 7 12 15 21 17 10 3 5 4
-10 4 -25 -1 -28 -5 -28 -39z"/>
<path d="M590 6960 c0 -11 5 -20 10 -20 6 0 10 9 10 20 0 11 -4 20 -10 20 -5
0 -10 -9 -10 -20z"/>
<path d="M679 6948 c4 -28 6 -29 9 -9 2 13 0 27 -5 32 -6 6 -7 -3 -4 -23z"/>
<path d="M713 6963 c0 -9 4 -10 14 -2 7 6 13 12 13 14 0 1 -6 2 -13 2 -8 0
-14 -6 -14 -14z"/>
<path d="M935 6960 c-3 -11 -10 -20 -15 -20 -4 0 -7 -11 -6 -24 0 -13 5 -22 9
-19 5 3 6 11 3 19 -3 8 -1 14 4 14 6 0 10 7 10 15 0 8 5 15 10 15 6 0 10 5 10
10 0 18 -18 11 -25 -10z"/>
<path d="M980 6964 c-11 -12 -10 -18 5 -32 13 -12 15 -12 8 -2 -14 19 -1 46
17 35 9 -6 9 -9 -1 -16 -11 -7 -10 -9 5 -9 12 0 16 5 12 16 -3 9 -6 18 -6 20
0 10 -29 2 -40 -12z"/>
<path d="M1075 6970 c4 -7 2 -16 -6 -21 -11 -7 -10 -9 4 -9 19 0 23 25 5 36
-7 5 -8 3 -3 -6z"/>
<path d="M826 6955 c-3 -8 -1 -15 4 -15 6 0 10 7 10 15 0 8 -2 15 -4 15 -2 0
-6 -7 -10 -15z"/>
<path d="M289 6853 c-6 -16 -14 -48 -17 -73 -2 -25 -10 -48 -16 -52 -8 -5 -7
-8 2 -8 6 0 12 -7 12 -16 0 -9 6 -14 13 -12 8 3 13 31 15 79 2 41 7 78 12 83
13 13 13 26 0 26 -6 0 -15 -12 -21 -27z"/>
<path d="M566 6823 c-3 -3 -5 -20 -5 -37 l1 -31 7 30 c7 29 7 29 15 8 7 -23
26 -32 26 -13 0 6 -4 10 -10 10 -5 0 -10 6 -10 14 0 17 -14 28 -24 19z"/>
<path d="M634 6818 c-4 -6 -3 -8 4 -4 7 4 12 -6 15 -26 4 -33 4 -33 5 5 2 36
-10 49 -24 25z"/>
<path d="M1315 6810 c-3 -5 1 -10 10 -10 9 0 13 5 10 10 -3 6 -8 10 -10 10 -2
0 -7 -4 -10 -10z"/>
<path d="M698 6803 c6 -2 18 -2 25 0 6 3 1 5 -13 5 -14 0 -19 -2 -12 -5z"/>
<path d="M760 6800 c-8 -5 -12 -11 -10 -14 3 -2 14 2 24 10 22 15 10 19 -14 4z"/>
<path d="M802 6780 c0 -19 2 -27 5 -17 2 9 2 25 0 35 -3 9 -5 1 -5 -18z"/>
<path d="M848 6803 c6 -2 18 -2 25 0 6 3 1 5 -13 5 -14 0 -19 -2 -12 -5z"/>
<path d="M907 6803 c-10 -19 -1 -77 13 -80 12 -4 12 -2 2 5 -16 11 -12 35 8
44 12 5 11 7 -4 7 -12 1 -16 6 -12 16 6 15 1 21 -7 8z"/>
<path d="M982 6783 c2 -22 9 -28 28 -30 22 -1 22 -1 3 4 -13 2 -23 8 -23 13 0
5 10 11 23 13 l22 4 -23 2 c-13 0 -20 6 -17 11 3 6 1 10 -5 10 -6 0 -10 -12
-8 -27z"/>
<path d="M1050 6780 c0 -16 2 -30 4 -30 2 0 6 14 8 30 3 17 1 30 -4 30 -4 0
-8 -13 -8 -30z"/>
<path d="M1123 6799 c9 -5 17 -20 17 -31 0 -12 3 -19 6 -15 12 12 -6 57 -24
57 -16 -1 -16 -1 1 -11z"/>
<path d="M1241 6788 c0 -16 2 -18 6 -8 3 8 11 18 17 22 7 5 4 8 -6 8 -12 0
-18 -7 -17 -22z"/>
<path d="M1083 6780 c5 -31 17 -37 15 -7 -1 15 -6 27 -10 27 -4 0 -7 -9 -5
-20z"/>
<path d="M1190 6790 c-13 -8 -12 -10 3 -10 9 0 17 5 17 10 0 12 -1 12 -20 0z"/>
<path d="M858 6753 c7 -3 16 -2 19 1 4 3 -2 6 -13 5 -11 0 -14 -3 -6 -6z"/>
<path d="M940 6745 c0 -8 5 -15 10 -15 6 0 10 7 10 15 0 8 -4 15 -10 15 -5 0
-10 -7 -10 -15z"/>
<path d="M1198 6753 c7 -3 16 -2 19 1 4 3 -2 6 -13 5 -11 0 -14 -3 -6 -6z"/>
<path d="M598 6659 c-21 -12 -14 -35 14 -42 14 -4 19 -11 15 -21 -4 -9 -2 -16
3 -16 27 0 -6 60 -33 60 -7 0 -4 5 6 11 9 5 22 7 29 3 7 -4 8 -3 4 4 -9 14
-16 15 -38 1z"/>
<path d="M794 6625 c0 -19 2 -35 6 -35 9 0 18 41 12 58 -7 23 -17 12 -18 -23z"/>
<path d="M478 6639 c-7 -5 -27 -9 -45 -9 -19 0 -36 -7 -43 -17 -10 -16 -11
-16 -6 -1 3 12 1 15 -10 11 -19 -7 -20 -138 0 -146 7 -3 35 1 62 9 27 8 60 18
74 22 23 7 25 12 25 72 0 60 -2 65 -22 66 -12 1 -27 -3 -35 -7z"/>
<path d="M732 6638 c-13 -13 2 -38 22 -38 6 0 4 5 -4 10 -12 8 -13 11 -1 19 7
5 9 11 4 14 -6 4 -15 1 -21 -5z"/>
<path d="M860 6641 c0 -6 5 -11 11 -11 5 0 7 -4 4 -10 -3 -5 -1 -10 4 -10 16
0 13 16 -4 30 -10 9 -15 9 -15 1z"/>
<path d="M666 6620 c3 -14 6 -35 6 -47 0 -27 13 -22 21 8 3 11 3 18 -1 15 -3
-4 -12 6 -19 21 -12 26 -13 26 -7 3z"/>
<path d="M911 6608 c2 -28 2 -29 6 -8 3 14 10 28 17 32 7 5 5 8 -6 8 -14 0
-18 -8 -17 -32z"/>
<path d="M940 6600 c0 -11 6 -20 13 -20 7 0 13 9 13 20 0 11 -6 20 -13 20 -7
0 -13 -9 -13 -20z"/>
<path d="M840 6590 c0 -6 7 -10 15 -10 8 0 15 2 15 4 0 2 -7 6 -15 10 -8 3
-15 1 -15 -4z"/>
</g>
</svg>
